<svg xmlns="http://www.w3.org/2000/svg" xmlns:xlink="http://www.w3.org/1999/xlink" version="1.1" width="256" height="256" viewBox="0 0 256 256" xml:space="preserve">
<g style="stroke: none; stroke-width: 0; stroke-dasharray: none; stroke-linecap: butt; stroke-linejoin: miter; stroke-miterlimit: 10; fill: none; fill-rule: nonzero; opacity: 1;" transform="translate(1.4065934065934016 1.4065934065934016) scale(2.81 2.81)">
	<path d="M 75.855 90 H 14.145 c -2.961 0 -5.37 -2.408 -5.37 -5.369 V 5.37 c 0 -2.961 2.409 -5.37 5.37 -5.37 h 61.711 c 2.961 0 5.369 2.409 5.369 5.37 v 79.261 C 81.225 87.592 78.816 90 75.855 90 z M 14.145 2 c -1.858 0 -3.37 1.512 -3.37 3.37 v 79.261 c 0 1.857 1.512 3.369 3.37 3.369 h 61.711 c 1.857 0 3.369 -1.512 3.369 -3.369 V 5.37 c 0 -1.858 -1.512 -3.37 -3.369 -3.37 H 14.145 z" style="stroke: none; stroke-width: 1; stroke-dasharray: none; stroke-linecap: butt; stroke-linejoin: miter; stroke-miterlimit: 10; fill: rgb(0,0,0); fill-rule: nonzero; opacity: 1;" transform=" matrix(1 0 0 1 0 0) " stroke-linecap="round"/>
	<path d="M 72.225 80 h -54.45 c -0.552 0 -1 -0.447 -1 -1 V 9 c 0 -0.552 0.448 -1 1 -1 h 54.45 c 0.553 0 1 0.448 1 1 v 70 C 73.225 79.553 72.777 80 72.225 80 z M 18.775 78 h 52.45 V 10 h -52.45 V 78 z" style="stroke: none; stroke-width: 1; stroke-dasharray: none; stroke-linecap: butt; stroke-linejoin: miter; stroke-miterlimit: 10; fill: rgb(0,0,0); fill-rule: nonzero; opacity: 1;" transform=" matrix(1 0 0 1 0 0) " stroke-linecap="round"/>
	<path d="M 48.401 85.014 h -6.803 c -0.552 0 -1 -0.447 -1 -1 s 0.448 -1 1 -1 h 6.803 c 0.553 0 1 0.447 1 1 S 48.954 85.014 48.401 85.014 z" style="stroke: none; stroke-width: 1; stroke-dasharray: none; stroke-linecap: butt; stroke-linejoin: miter; stroke-miterlimit: 10; fill: rgb(0,0,0); fill-rule: nonzero; opacity: 1;" transform=" matrix(1 0 0 1 0 0) " stroke-linecap="round"/>
	<path d="M 62.225 20 h -34.45 c -0.552 0 -1 -0.448 -1 -1 s 0.448 -1 1 -1 h 34.45 c 0.553 0 1 0.448 1 1 S 62.777 20 62.225 20 z" style="stroke: none; stroke-width: 1; stroke-dasharray: none; stroke-linecap: butt; stroke-linejoin: miter; stroke-miterlimit: 10; fill: rgb(0,0,0); fill-rule: nonzero; opacity: 1;" transform=" matrix(1 0 0 1 0 0) " stroke-linecap="round"/>
	<path d="M 62.225 40 h -34.45 c -0.552 0 -1 -0.448 -1 -1 s 0.448 -1 1 -1 h 34.45 c 0.553 0 1 0.448 1 1 S 62.777 40 62.225 40 z" style="stroke: none; stroke-width: 1; stroke-dasharray: none; stroke-linecap: butt; stroke-linejoin: miter; stroke-miterlimit: 10; fill: rgb(0,0,0); fill-rule: nonzero; opacity: 1;" transform=" matrix(1 0 0 1 0 0) " stroke-linecap="round"/>
	<path d="M 62.225 30 h -34.45 c -0.552 0 -1 -0.448 -1 -1 s 0.448 -1 1 -1 h 34.45 c 0.553 0 1 0.448 1 1 S 62.777 30 62.225 30 z" style="stroke: none; stroke-width: 1; stroke-dasharray: none; stroke-linecap: butt; stroke-linejoin: miter; stroke-miterlimit: 10; fill: rgb(0,0,0); fill-rule: nonzero; opacity: 1;" transform=" matrix(1 0 0 1 0 0) " stroke-linecap="round"/>
	<path d="M 62.225 60 h -34.45 c -0.552 0 -1 -0.447 -1 -1 s 0.448 -1 1 -1 h 34.45 c 0.553 0 1 0.447 1 1 S 62.777 60 62.225 60 z" style="stroke: none; stroke-width: 1; stroke-dasharray: none; stroke-linecap: butt; stroke-linejoin: miter; stroke-miterlimit: 10; fill: rgb(0,0,0); fill-rule: nonzero; opacity: 1;" transform=" matrix(1 0 0 1 0 0) " stroke-linecap="round"/>
	<path d="M 62.225 50 h -34.45 c -0.552 0 -1 -0.447 -1 -1 s 0.448 -1 1 -1 h 34.45 c 0.553 0 1 0.447 1 1 S 62.777 50 62.225 50 z" style="stroke: none; stroke-width: 1; stroke-dasharray: none; stroke-linecap: butt; stroke-linejoin: miter; stroke-miterlimit: 10; fill: rgb(0,0,0); fill-rule: nonzero; opacity: 1;" transform=" matrix(1 0 0 1 0 0) " stroke-linecap="round"/>
	<path d="M 42.225 70 h -14.45 c -0.552 0 -1 -0.447 -1 -1 s 0.448 -1 1 -1 h 14.45 c 0.552 0 1 0.447 1 1 S 42.777 70 42.225 70 z" style="stroke: none; stroke-width: 1; stroke-dasharray: none; stroke-linecap: butt; stroke-linejoin: miter; stroke-miterlimit: 10; fill: rgb(0,0,0); fill-rule: nonzero; opacity: 1;" transform=" matrix(1 0 0 1 0 0) " stroke-linecap="round"/>
</g>
</svg>